# xmcd
#
# Track frame offsets:
# 150
# 23464
# 54888
# 81389
# 107693
# 137469
# 171753
# 193713
# 235069
# 254406
#
# Disc length: 3734 seconds
#
# Revision: 0
# Processed by: cddbd v1.5.2PL0 Copyright (c) Steve Scherf et al.
# Submitted via: Audion 3.0.2 (http://www.panic.com/audion/)
#
DISCID=760e940a
DTITLE=Big Robert Smith - Big Robert Smith with The El Orbits and Friends
DYEAR=1900
DGENRE=
TTITLE0=Everyday I Have the Blues
TTITLE1=Stormy Monday
TTITLE2=Mustang Sally
TTITLE3=Fever
TTITLE4=Knock on Wood
TTITLE5=Three O'Clock Blues
TTITLE6=Dock of the Bay
TTITLE7=Rock Me
TTITLE8=Just a Little Bit
TTITLE9=Old Time Rock N Roll
EXTD=
EXTT0=
EXTT1=
EXTT2=
EXTT3=
EXTT4=
EXTT5=
EXTT6=
EXTT7=
EXTT8=
EXTT9=
PLAYORDER=
